<!-- Generated by IcoMoon.io -->
<svg version="1.1" xmlns="http://www.w3.org/2000/svg" width="32" height="32" viewBox="0 0 32 32">
<title>fenlei</title>
<path d="M6.412 2.816h4.794c1.986 0 3.596 1.61 3.596 3.596v0 4.794c0 1.986-1.61 3.596-3.596 3.596h-4.794c-1.986 0-3.596-1.61-3.596-3.596v0-4.794c0-1.986 1.61-3.596 3.596-3.596v0zM6.412 4.734c-0.927 0-1.678 0.751-1.678 1.678v0 4.794c0 0.927 0.751 1.678 1.678 1.678h4.794c0.927 0 1.678-0.751 1.678-1.678v0-4.794c0-0.927-0.751-1.678-1.678-1.678h-4.794zM6.412 17.198h4.794c1.986 0 3.596 1.61 3.596 3.596v0 4.794c0 1.986-1.61 3.596-3.596 3.596h-4.794c-1.986 0-3.596-1.61-3.596-3.596v0-4.794c0-1.986 1.61-3.596 3.596-3.596v0zM6.412 19.116c-0.927 0-1.678 0.751-1.678 1.678v0 4.794c0 0.927 0.751 1.678 1.678 1.678h4.794c0.927 0 1.678-0.751 1.678-1.678v-4.794c0-0.927-0.751-1.678-1.678-1.678h-4.794zM20.794 2.816h4.794c1.986 0 3.596 1.61 3.596 3.596v0 4.794c0 1.986-1.61 3.596-3.596 3.596v0h-4.794c-1.986 0-3.596-1.61-3.596-3.596v0-4.794c0-1.986 1.61-3.596 3.596-3.596v0zM20.794 4.734c-0.927 0-1.678 0.751-1.678 1.678v4.794c0 0.927 0.751 1.678 1.678 1.678h4.794c0.927 0 1.678-0.751 1.678-1.678v0-4.794c0-0.927-0.751-1.678-1.678-1.678h-4.794zM18.996 19.955h8.39c0 0 0 0 0 0 0.53 0 0.959-0.429 0.959-0.959s-0.429-0.959-0.959-0.959c-0 0-0 0-0 0h-8.39c-0 0-0 0-0 0-0.53 0-0.959 0.429-0.959 0.959s0.429 0.959 0.959 0.959c0 0 0 0 0 0v0zM18.996 24.15h5.993c0 0 0 0 0 0 0.53 0 0.959-0.429 0.959-0.959s-0.429-0.959-0.959-0.959c-0 0-0 0-0 0h-5.993c-0 0-0 0-0 0-0.53 0-0.959 0.429-0.959 0.959s0.429 0.959 0.959 0.959c0 0 0 0 0 0v0zM18.996 28.345h3.596c0 0 0 0 0 0 0.53 0 0.959-0.429 0.959-0.959s-0.429-0.959-0.959-0.959c-0 0-0 0-0 0h-3.596c-0 0-0 0-0 0-0.53 0-0.959 0.429-0.959 0.959s0.429 0.959 0.959 0.959c0 0 0 0 0 0v0z"></path>
</svg>
