<!-- Generated by IcoMoon.io -->
<svg version="1.1" xmlns="http://www.w3.org/2000/svg" width="32" height="32" viewBox="0 0 32 32">
<title>wode</title>
<path d="M26.667 28c-0.736 0-1.333-0.597-1.333-1.333v0c-0.001-0.666-0.071-1.315-0.204-1.941l0.011 0.061c-0.135-0.667-0.322-1.254-0.563-1.812l0.023 0.059c-0.258-0.609-0.546-1.13-0.88-1.618l0.020 0.031c-0.354-0.515-0.729-0.966-1.141-1.381l0.001 0.001c-0.413-0.413-0.864-0.788-1.348-1.119l-0.032-0.021c-0.4-0.235-0.664-0.663-0.664-1.153 0-0.736 0.597-1.333 1.333-1.333 0.309 0 0.594 0.105 0.82 0.282l-0.003-0.002c0.667 0.448 1.249 0.929 1.78 1.46v0c0.527 0.531 1.008 1.111 1.433 1.731l0.027 0.042c0.403 0.588 0.774 1.261 1.077 1.969l0.029 0.077c0.596 1.377 0.943 2.981 0.947 4.665v0.001c0 0.736-0.597 1.333-1.333 1.333v0zM23.187 8.52c-0.11-0.524-0.26-0.983-0.451-1.419l0.018 0.046c-0.199-0.478-0.422-0.888-0.682-1.271l0.016 0.025c-0.276-0.406-0.57-0.762-0.894-1.087l0 0c-0.325-0.324-0.68-0.618-1.061-0.877l-0.026-0.016c-1.151-0.786-2.572-1.256-4.103-1.256-0.52 0-1.028 0.054-1.518 0.157l0.048-0.008c-0.996 0.214-1.877 0.598-2.653 1.124l0.026-0.017c-0.406 0.275-0.762 0.569-1.087 0.893l0-0c-0.324 0.325-0.618 0.68-0.877 1.061l-0.016 0.026c-0.24 0.357-0.464 0.767-0.648 1.198l-0.019 0.049c-0.168 0.388-0.315 0.848-0.418 1.323l-0.009 0.050c-0.093 0.445-0.147 0.956-0.147 1.48s0.053 1.035 0.155 1.529l-0.008-0.049c0.11 0.524 0.26 0.983 0.451 1.419l-0.018-0.046c0.199 0.478 0.422 0.888 0.682 1.271l-0.016-0.025c0.243 0.357 0.648 0.588 1.107 0.588 0.737 0 1.335-0.598 1.335-1.335 0-0.279-0.085-0.537-0.231-0.751l0.003 0.005c-0.162-0.227-0.307-0.486-0.423-0.76l-0.010-0.027c-0.109-0.25-0.204-0.544-0.268-0.85l-0.005-0.030c-0.059-0.283-0.093-0.607-0.093-0.94s0.034-0.657 0.099-0.971l-0.005 0.031c0.068-0.332 0.163-0.624 0.284-0.902l-0.011 0.028c0.126-0.304 0.269-0.565 0.436-0.808l-0.009 0.015c0.18-0.247 0.368-0.465 0.573-0.666l0.001-0.001c0.201-0.208 0.419-0.396 0.652-0.564l0.014-0.010c0.228-0.158 0.489-0.301 0.765-0.416l0.028-0.011c0.249-0.111 0.541-0.205 0.845-0.268l0.029-0.005c0.283-0.061 0.607-0.096 0.94-0.096s0.657 0.035 0.97 0.101l-0.030-0.005c0.332 0.068 0.624 0.163 0.902 0.284l-0.028-0.011c0.304 0.126 0.565 0.269 0.808 0.436l-0.015-0.009c0.502 0.341 0.921 0.763 1.25 1.25l0.010 0.016c0.162 0.227 0.307 0.486 0.423 0.76l0.010 0.027c0.109 0.25 0.204 0.544 0.268 0.85l0.005 0.030c0.059 0.283 0.093 0.607 0.093 0.94s-0.034 0.657-0.099 0.971l0.005-0.031c-0.068 0.332-0.163 0.624-0.284 0.902l0.011-0.028c-0.126 0.304-0.269 0.565-0.436 0.808l0.009-0.015c-0.167 0.263-0.34 0.492-0.531 0.705l0.004-0.005c-0.201 0.208-0.419 0.396-0.652 0.564l-0.014 0.010c-0.228 0.158-0.489 0.301-0.765 0.416l-0.029 0.011c-0.249 0.111-0.541 0.205-0.845 0.268l-0.029 0.005c-0.238 0.041-0.512 0.064-0.791 0.064-0.073 0-0.147-0.002-0.219-0.005l0.010 0c-1.686 0.003-3.289 0.351-4.745 0.977l0.079-0.030c-0.768 0.337-1.425 0.707-2.040 1.133l0.040-0.026c-0.667 0.448-1.249 0.929-1.78 1.46v0c-0.527 0.531-1.008 1.111-1.433 1.731l-0.027 0.042c-0.418 0.59-0.801 1.262-1.117 1.971l-0.030 0.075c-0.596 1.377-0.943 2.981-0.947 4.665v0.001c0 0.736 0.597 1.333 1.333 1.333s1.333-0.597 1.333-1.333v0c0.001-0.666 0.071-1.315 0.204-1.941l-0.011 0.061c0.135-0.667 0.322-1.254 0.563-1.812l-0.023 0.059c0.258-0.609 0.546-1.13 0.88-1.618l-0.020 0.031c0.354-0.515 0.729-0.966 1.141-1.381l-0.001 0.001c0.413-0.413 0.864-0.788 1.348-1.119l0.032-0.021c0.456-0.314 0.978-0.602 1.527-0.837l0.059-0.023c0.497-0.216 1.083-0.405 1.691-0.535l0.063-0.011c0.564-0.117 1.214-0.185 1.879-0.187h0.001c0.522-0.002 1.031-0.055 1.523-0.155l-0.050 0.008c0.996-0.214 1.877-0.598 2.653-1.124l-0.026 0.017c0.407-0.275 0.762-0.569 1.087-0.893l-0 0c0.324-0.325 0.618-0.68 0.877-1.061l0.016-0.026c0.24-0.357 0.464-0.767 0.648-1.198l0.019-0.049c0.168-0.388 0.315-0.848 0.418-1.323l0.009-0.050c0.093-0.445 0.147-0.956 0.147-1.48s-0.053-1.035-0.155-1.529l0.008 0.049z"></path>
</svg>
