<?xml version="1.0" standalone="no"?><!DOCTYPE svg PUBLIC "-//W3C//DTD SVG 1.1//EN" "http://www.w3.org/Graphics/SVG/1.1/DTD/svg11.dtd"><svg t="1632157819762" class="icon" viewBox="0 0 1024 1024" version="1.1" xmlns="http://www.w3.org/2000/svg" p-id="2489" xmlns:xlink="http://www.w3.org/1999/xlink" width="200" height="200"><defs><style type="text/css"></style></defs><path d="M929.59 515.85h-64c0-193.87-157.72-351.59-351.59-351.59-193.87 0-351.59 157.72-351.59 351.59h-64c0-56.09 10.99-110.52 32.67-161.78 20.93-49.49 50.89-93.93 89.05-132.09s82.6-68.12 132.09-89.05c51.26-21.68 105.69-32.67 161.78-32.67s110.52 10.99 161.78 32.67c49.49 20.93 93.93 50.89 132.09 89.05s68.12 82.6 89.05 132.09c21.68 51.26 32.67 105.69 32.67 161.78z" fill="#ff8198" p-id="2490"></path><path d="M514 928.24v-64c193.87 0 351.59-157.72 351.59-351.59h64c0 56.09-10.99 110.52-32.67 161.78-20.93 49.49-50.89 93.93-89.05 132.09s-82.6 68.12-132.09 89.05c-51.26 21.68-105.69 32.67-161.78 32.67z" fill="#ff8198" p-id="2491"></path><path d="M530.44 928.33h-36.08c-38.08 0-69.06-30.98-69.06-69.06v-9.22c0-38.08 30.98-69.06 69.06-69.06h36.08c38.08 0 69.06 30.98 69.06 69.06v9.22c0 38.08-30.98 69.06-69.06 69.06zM494.36 845c-2.79 0-5.06 2.27-5.06 5.06v9.22c0 2.79 2.27 5.06 5.06 5.06h36.08c2.79 0 5.06-2.27 5.06-5.06v-9.22c0-2.79-2.27-5.06-5.06-5.06h-36.08zM255.04 433.67v156.42h-14.83c-43.13 0-78.21-35.09-78.21-78.21 0-43.13 35.09-78.21 78.21-78.21h14.83m64-64h-78.83C161.67 369.67 98 433.34 98 511.88s63.67 142.21 142.21 142.21h78.83V369.67zM786.9 433.67c43.13 0 78.21 35.09 78.21 78.21 0 43.13-35.09 78.21-78.21 78.21h-14.83V433.67h14.83m0-64h-78.83v284.42h78.83c78.54 0 142.21-63.67 142.21-142.21S865.44 369.67 786.9 369.67z" fill="#ff8198" p-id="2492"></path></svg>