<!-- Generated by IcoMoon.io -->
<svg version="1.1" xmlns="http://www.w3.org/2000/svg" width="32" height="32" viewBox="0 0 32 32">
<title>gouwuche</title>
<path d="M10.918 29.412c1.694 0 2.824-1.318 2.824-3.012s-1.318-3.012-2.824-3.012c-1.694 0-2.824 1.318-2.824 3.012s1.318 3.012 2.824 3.012zM10.918 27.529c-0.565 0-0.941-0.376-0.941-1.129 0-0.565 0.376-1.129 0.941-1.129s0.941 0.376 0.941 1.129c0.188 0.565-0.376 1.129-0.941 1.129zM21.835 29.412c1.694 0 2.824-1.318 2.824-3.012s-1.318-3.012-2.824-3.012c-1.694 0-2.824 1.318-2.824 3.012s1.318 3.012 2.824 3.012zM21.835 27.529c-0.565 0-0.941-0.376-0.941-1.129 0-0.565 0.376-1.129 0.941-1.129s0.941 0.376 0.941 1.129c0.188 0.565-0.376 1.129-0.941 1.129zM1.318 4.376h1.506c0.565 0 1.318 0.565 1.318 1.129l3.576 17.129c0.376 1.506 1.694 2.635 3.2 2.635h14.494v-1.882h-14.494c-0.565 0-1.129-0.565-1.318-1.129l-3.576-17.129c-0.376-1.506-1.694-2.635-3.2-2.635h-1.506v1.882zM8.282 18.494v1.882h17.882l3.953-7.718c1.318-2.447-0.188-4.706-3.012-4.706h-21.082v1.882h21.082c1.318 0 1.882 0.753 1.318 2.071l-3.388 6.588h-16.753z"></path>
</svg>
