<!-- Generated by IcoMoon.io -->
<svg version="1.1" xmlns="http://www.w3.org/2000/svg" width="32" height="32" viewBox="0 0 32 32">
<title>shouye</title>
<path d="M30 14c-0.2 0-0.403-0.059-0.581-0.188l-13.419-9.584-13.419 9.584c-0.45 0.319-1.075 0.216-1.394-0.234-0.322-0.45-0.216-1.075 0.234-1.394l14-10c0.347-0.247 0.816-0.247 1.163 0l14 10c0.45 0.322 0.553 0.947 0.234 1.394-0.2 0.275-0.506 0.422-0.819 0.422zM19 30h-6c-0.553 0-1-0.447-1-1v-9c0-0.553 0.447-1 1-1h6c0.553 0 1 0.447 1 1v9c0 0.553-0.447 1-1 1zM14 28h4v-7h-4v7zM26 30h-20c-1.653 0-3-1.347-3-3v-15c0-0.553 0.447-1 1-1s1 0.447 1 1v15c0 0.55 0.45 1 1 1h20c0.55 0 1-0.45 1-1v-15c0-0.553 0.447-1 1-1s1 0.447 1 1v15c0 1.653-1.347 3-3 3z"></path>
</svg>
